<svg xmlns="http://www.w3.org/2000/svg" viewBox="0 0 192 192">
  <defs>
    <linearGradient id="bg" x1="0" y1="0" x2="1" y2="1">
      <stop offset="0" stop-color="#122029"/>
      <stop offset="1" stop-color="#020406"/>
    </linearGradient>
    <radialGradient id="bead" cx="35%" cy="30%" r="70%">
      <stop offset="0" stop-color="#9fb8c2"/>
      <stop offset="1" stop-color="#35525f"/>
    </radialGradient>
    <radialGradient id="accent" cx="35%" cy="30%" r="75%">
      <stop offset="0" stop-color="#31ffad"/>
      <stop offset="1" stop-color="#0b7a47"/>
    </radialGradient>
  </defs>

  <rect width="192" height="192" rx="38" fill="url(#bg)"/>

  <g fill="url(#bead)">
    <circle cx="51" cy="95" r="8"/>
    <circle cx="57" cy="82" r="7.3"/>
    <circle cx="66" cy="71" r="6.8"/>
    <circle cx="78" cy="63" r="6.3"/>
    <circle cx="92" cy="58" r="5.8"/>
    <circle cx="106" cy="58" r="5.8"/>
    <circle cx="120" cy="63" r="6.3"/>
    <circle cx="132" cy="71" r="6.8"/>
    <circle cx="141" cy="82" r="7.3"/>
    <circle cx="147" cy="95" r="8"/>
    <circle cx="137" cy="106" r="8.4"/>
    <circle cx="125" cy="114" r="8.9"/>
    <circle cx="111" cy="120" r="9.5"/>
    <circle cx="81" cy="120" r="9.5"/>
    <circle cx="67" cy="114" r="8.9"/>
    <circle cx="55" cy="106" r="8.4"/>
  </g>

  <circle cx="96" cy="126" r="13" fill="url(#accent)"/>
  <circle cx="96" cy="145" r="5.8" fill="#0ea960"/>

  <path d="M96 150 C90 160, 90 168, 97 174 C92 170, 90 163, 90 155" fill="none" stroke="#169a5c" stroke-width="3.4" stroke-linecap="round"/>
  <path d="M96 150 C100 160, 103 167, 111 169 C105 167, 101 161, 98 155" fill="none" stroke="#2acc79" stroke-width="3.1" stroke-linecap="round"/>
  <path d="M96 150 C94 162, 97 170, 105 176" fill="none" stroke="#1eb46a" stroke-width="2.8" stroke-linecap="round"/>
</svg>
